<svg width="61" height="51" viewBox="0 0 61 51" fill="none" xmlns="http://www.w3.org/2000/svg">
<path d="M58.4 24.0427C58.0552 23.9804 57.7015 23.9866 57.3592 24.0611C57.0168 24.1355 56.6925 24.2767 56.4047 24.4766C56.117 24.6764 55.8714 24.931 55.6821 25.2258C55.4927 25.5206 55.3634 25.8498 55.3013 26.1947L54.96 28.0853C54.6273 29.9315 53.6565 31.6021 52.2171 32.8051C50.7776 34.0081 48.9613 34.667 47.0853 34.6667H14.448L11.9413 13.3333H29.3333C30.0406 13.3333 30.7189 13.0524 31.2189 12.5523C31.719 12.0522 32 11.3739 32 10.6667C32 9.95942 31.719 9.28115 31.2189 8.78105C30.7189 8.28095 30.0406 8 29.3333 8H11.312L11.2 7.06133C10.9702 5.11626 10.0348 3.32308 8.57117 2.02161C7.10751 0.720145 5.21726 0.000834231 3.25867 0L2.66667 0C1.95942 0 1.28115 0.280952 0.781049 0.781049C0.280952 1.28115 0 1.95942 0 2.66667C0 3.37391 0.280952 4.05219 0.781049 4.55229C1.28115 5.05238 1.95942 5.33333 2.66667 5.33333H3.25867C3.91182 5.33342 4.54223 5.57322 5.03033 6.00724C5.51842 6.44127 5.83025 7.03933 5.90667 7.688L9.576 38.888C9.95694 42.1328 11.5159 45.1248 13.9571 47.296C16.3982 49.4673 19.5516 50.6667 22.8187 50.6667H50.6667C51.3739 50.6667 52.0522 50.3857 52.5523 49.8856C53.0524 49.3855 53.3333 48.7072 53.3333 48C53.3333 47.2928 53.0524 46.6145 52.5523 46.1144C52.0522 45.6143 51.3739 45.3333 50.6667 45.3333H22.8187C21.164 45.3337 19.55 44.8209 18.199 43.8657C16.8479 42.9106 15.8262 41.56 15.2747 40H47.0853C50.2114 40.0002 53.2382 38.902 55.6369 36.8972C58.0355 34.8924 59.6534 32.1085 60.208 29.032L60.5493 27.1387C60.6744 26.4431 60.5183 25.7264 60.1153 25.1459C59.7123 24.5654 59.0954 24.1686 58.4 24.0427Z" fill="#5FE26C"/>
</svg>
